<svg xmlns="http://www.w3.org/2000/svg" viewBox="0 0 100 17"><path d="M3.5 9.4V3.7c0-1.2-.4-1.8-1.2-1.8-.2 0-.4 0-.5.1-.2 0-.4.1-.6.1-.2 0-.4-.1-.5-.3-.2-.1-.2-.3-.2-.5 0-.6.3-.9 1-.9h.4l1.6.2c.6.1 1.3.1 2.1.1.4 0 1.3 0 2.7-.1L11 .5c.4 0 .8 0 1.3-.1h.7c.8 0 1.3.4 1.3 1.1 0 .3 0 .7-.1 1.3s-.1 1-.1 1.3V6c0 .6-.3 1-.9 1-.6 0-.9-.4-.9-1.1v-1-1c0-.8-.2-1.4-.7-1.6-.4-.1-1.6-.2-3.3-.2-1.5 0-2.4.1-2.6.4-.1.2-.2.9-.2 2.2v1.8c0 .4.1.7.2.8.1.1.4.2 1 .2h.8C8.4 7.4 9 7 9 6.3c0-.2 0-.4-.1-.7 0-.3-.1-.5-.1-.7 0-.6.3-.9.9-.9.5 0 .8.3.8 1 0 .1 0 .3-.1.6l-.2 1.3c-.1.6-.1 1-.1 1.3 0 .6.1 1.5.2 2.5.1.3.1.6.1.9 0 .6-.3.9-.9.9-.5 0-.8-.3-.8-1v-.7-.7c0-.5-.1-.8-.4-.9 0-.2-.3-.3-.9-.3h-.7c-.6 0-.9.1-1 .2-.1.1-.2.5-.2 1V13c0 .7.1 1.2.2 1.5.2.3.5.4.9.4h1c.7 0 1.1.3 1.1.8 0 .2-.1.4-.2.6-.2.2-.4.2-.6.2-.3 0-.6 0-1.1-.1-.7-.1-1.5-.2-2.4-.2-.6 0-1.2 0-1.8.1l-.8.1H1.5c-.7 0-1-.3-1-.9 0-.5.2-.8.7-.8h.6c.2.2.4.3.5.3.4 0 .7-.1.9-.4s.3-.7.3-1.4V9.4zM19.5 5.2v.7c.8-1.2 1.9-1.7 3.3-1.7 1.1 0 2 .3 2.7.9.7.6 1 1.4 1 2.4 0 .7-.2 1.3-.5 1.7-.3.4-.8.7-1.4.7-.4 0-.7-.1-.9-.3-.3-.2-.4-.5-.4-.8 0-.3.1-.5.3-.7.2-.2.4-.3.7-.3 0 0 .2 0 .3.1.1-.2.1-.4.1-.5 0-.5-.2-.8-.6-1.2-.4-.3-.9-.5-1.5-.5-1.2 0-2.1.6-2.5 1.7-.3.7-.4 1.7-.4 3.1V13.9c.1.9.3 1.4.7 1.4.2 0 .4 0 .6-.1.2 0 .3-.1.5-.1.5 0 .8.2.8.7 0 .5-.3.8-1 .8h-.1c-.2 0-.6 0-1.1-.1-.5-.1-.8-.1-1.1-.1h-1.5l-1.3.1c-.6 0-1-.3-1-.8s.3-.7.9-.7h1.2c.4 0 .6-.4.6-1.1v-1.2l-.1-5.4c0-.9-.3-1.4-.7-1.4-.1 0-.3 0-.5.1-.2 0-.4.1-.5.1-.5 0-.8-.3-.8-.8 0-.6.3-.8 1-.8.2 0 .4 0 .7.1.3 0 .6.1.7.1.1 0 .3 0 .6-.1.1 0 .3-.1.5-.1.5 0 .7.2.7.7zM37.7 16.6c-1.3 0-2.1-.6-2.4-1.7-.8 1.2-2.1 1.8-3.8 1.8-1.3 0-2.3-.3-3.1-.9-.8-.6-1.1-1.5-1.1-2.5 0-1.3.6-2.3 1.7-2.9.4-.2.8-.4 1.1-.5.3-.1.9-.2 1.9-.3 1.3-.1 2.2-.3 2.6-.6.4-.3.6-.7.6-1.4 0-.6-.2-1.2-.7-1.5-.5-.4-1.1-.6-1.9-.6-.7 0-1.4.2-2 .6-.2.2-.4.3-.4.5 0 .1.1.1.2.2.2.2.3.4.3.8 0 .3-.1.6-.3.8s-.4.4-.8.4-.8-.1-1-.4-.4-.6-.4-1c0-.9.4-1.6 1.3-2.3.9-.6 1.9-.9 3.2-.9 2.9 0 4.3 1.4 4.3 4.1v6c.1.6.4.8.8.8.6 0 .8-.5.8-1.5v-1.2c0-.5.2-.8.7-.8.5 0 .8.4.8 1.1v1.7c0 1.5-.8 2.2-2.4 2.2zm-2.6-4.7v-1.7c-.3.3-.7.5-1.1.7-.4.1-1.1.2-2.1.3-1.8.2-2.7.8-2.7 2 0 .6.2 1.1.7 1.4.4.3 1 .5 1.8.5 1.1 0 1.9-.3 2.5-.9.6-.5.9-1.3.9-2.3zM44.6 5.2v.7c.9-1.2 2.2-1.8 3.8-1.8.9 0 1.7.2 2.4.7.8.4 1.3 1 1.5 1.6.2.5.3 1.2.3 2.1v5.7c.1.5.3.8.6.8.1 0 .3 0 .6-.1.2 0 .4-.1.5-.1.2 0 .4.1.5.2s.2.3.2.5-.1.4-.3.6c-.2.2-.4.2-.7.2-.2 0-.6 0-1.1-.1s-1-.1-1.4-.1h-1c-.8.1-1.2.1-1.3.1-.6 0-.9-.3-.9-.8s.3-.7.8-.7h.4c.5.3.7.3.7.3.4 0 .6-.4.6-1.3V9.2c0-.8 0-1.4-.1-1.7-.1-.6-.4-1.1-.9-1.4-.5-.4-1.1-.5-1.8-.5-1.3 0-2.2.5-2.7 1.4-.4.6-.6 1.7-.6 3.2v3.2c0 .7 0 1.2.1 1.4s.3.4.5.4c.1 0 .3 0 .5-.1s.4-.1.5-.1c.5 0 .7.3.7.8s-.3.8-.9.8c-.1 0-.5 0-1.2-.1-.3 0-.7-.1-1.2-.1-.3 0-.8 0-1.3.1-.7.1-1.1.1-1.2.1-.7 0-1-.3-1-.8s.3-.8.8-.8c.1 0 .2 0 .4.1.2 0 .4.1.6.1.5 0 .7-.5.7-1.4V7.3c0-.5-.1-.9-.2-1.1-.1-.2-.3-.3-.5-.3-.1 0-.3 0-.5.1h-.3c-.6 0-.9-.3-.9-.8s.4-.8 1.1-.8h.2l.9.1c.3 0 .5 0 .7-.1.4 0 .6-.1.6-.1.5.2.8.4.8.9zM59.7 10.3l4.1-3.8c.1-.1.2-.2.2-.4s-.1-.2-.3-.2c-.2 0-.4 0-.7.1-.3.1-.5.1-.7.1-.6 0-.8-.3-.8-.8 0-.6.3-.8 1-.8h.7c1.1.1 1.9.2 2.5.2h.8l1-.1h.5c.8 0 1.2.3 1.2.8s-.3.8-.8.8c-.1 0-.3 0-.5-.1s-.4-.1-.5-.1c-.4 0-.8.2-1.2.6l-2.5 2.3c-.2.2-.3.3-.3.4 0 .1.1.2.2.4l3 3.9c.8 1 1.3 1.5 1.7 1.5.1 0 .2 0 .4-.1.2 0 .3-.1.4-.1.6 0 .9.3.9.8s-.4.8-1.1.8c-.3 0-.7 0-1.3-.1s-1-.1-1.3-.1c-.3 0-.6 0-1.1.1s-.8.1-1.1.1c-.6 0-.9-.3-.9-.8s.3-.8.9-.8h.4c.3.1.5.1.5.1.1 0 .2-.1.2-.2v-.1l-.2-.3-.3-.5-2.4-3.2c-.2-.2-.3-.3-.4-.3-.1 0-.2.1-.4.2l-1.8 1.6V14c.1.6.3.8.7.8h.8c.5 0 .8.3.8.8s-.3.8-.9.8c-.3 0-.7 0-1.2-.1s-1-.1-1.2-.1c-.4 0-.8 0-1.3.1-.6.1-1 .1-1.2.1-.6 0-.9-.3-.9-.8s.3-.8.9-.8h.5c.3 0 .4.1.5.1.4 0 .6-.3.6-.9l.1-.9V3.6c0-.9-.1-1.4-.2-1.6-.1-.2-.2-.3-.5-.3h-.5c-.2.1-.4.1-.7.1-.5 0-.8-.2-.8-.7 0-.5.3-.8.9-.8h.7c.4 0 .7.1.8.1H59c.5 0 .8.3.8 1v8.9z"/><path d="M74.4 6.4v7.4c0 .8.2 1.2.6 1.2.1 0 .3 0 .6-.1h.4c.5 0 .8.3.8.8s-.3.8-1 .8c-.3 0-.7 0-1.2-.1s-1-.1-1.3-.1c-.3 0-.6 0-1.1.1s-.9.1-1.1.1H71c-.7 0-1-.3-1-.9 0-.5.3-.7.8-.7h.4c.4.1.6.1.7.1.3 0 .5-.1.5-.4.1-.2.1-.9.1-1.9V3.1c0-.5 0-.8-.1-1-.1-.4-.3-.5-.7-.5 0 0-.3 0-.6.1h-.4c-.4.1-.7-.2-.7-.7 0-.5.3-.8.9-.8h.5l.6.1h.6c.2 0 .4 0 .7-.1.3 0 .6-.1.7-.1.4 0 .5.2.5.7v.4c0 1.3-.1 3-.1 5.2zM81.9 9.5V14c.1.7.3 1.1.6 1.1.1 0 .3 0 .6-.1h.4c.6 0 .9.3.9.8 0 .2-.1.4-.3.6-.2.2-.4.2-.8.2-.3 0-.6 0-1.2-.1s-.9-.1-1.2-.1c-.4 0-.9 0-1.4.1-.6.1-1 .1-1.2.1-.6 0-1-.3-1-.8s.3-.8.8-.8c.1 0 .3 0 .6.1.2 0 .4.1.6.1.4 0 .6-.5.7-1.5V9.5 7.4c-.1-1-.3-1.5-.7-1.5-.1 0-.3 0-.5.1s-.4.1-.5.1c-.6 0-.9-.3-.9-.8s.3-.8 1-.8h.6c.5.1.8.1 1 .1.1 0 .3 0 .6-.1.3 0 .5-.1.6-.1.5 0 .7.3.7.9v4.2zm-1.3-6.3c-.4 0-.7-.1-.9-.4-.3-.3-.4-.6-.4-.9s.1-.7.4-.9c.3-.3.6-.4.9-.4.4 0 .7.1.9.4.3.2.5.6.5.9s-.1.7-.4.9c-.3.3-.6.4-1 .4zM89 5.2v.7c.9-1.2 2.2-1.8 3.8-1.8.9 0 1.7.2 2.4.7.8.4 1.3 1 1.5 1.6.2.5.3 1.2.3 2.1v5.7c.1.5.3.8.6.8.1 0 .3 0 .6-.1.2 0 .4-.1.5-.1.2 0 .4.1.5.2s.2.3.2.5-.1.4-.3.6c-.2.2-.4.2-.7.2-.2 0-.6 0-1.1-.1s-1-.1-1.4-.1h-1c-.8.1-1.2.1-1.3.1-.6 0-.9-.3-.9-.8s.3-.7.8-.7h.4c.3.1.5.1.6.1.4 0 .6-.4.6-1.3V9.2c0-.8 0-1.4-.1-1.7-.1-.6-.4-1.1-.9-1.4-.5-.4-1.1-.5-1.8-.5-1.3 0-2.2.5-2.7 1.4-.4.6-.6 1.7-.6 3.2v3.2c0 .7 0 1.2.1 1.4.1.3.3.4.5.4.1 0 .3 0 .5-.1s.4-.1.5-.1c.5 0 .7.3.7.8s-.3.8-.9.8c-.1 0-.5 0-1.2-.1-.3 0-.7-.1-1.2-.1-.3 0-.8 0-1.3.1-.7.1-1.1.1-1.2.1-.7 0-1-.3-1-.8s.3-.8.8-.8c.1 0 .2 0 .4.1.2 0 .4.1.6.1.5 0 .7-.5.7-1.4V7.3c0-.5-.1-.9-.2-1.1.3-.2.2-.3-.1-.3-.1 0-.3 0-.5.1h-.5c-.6 0-.9-.3-.9-.8s.4-.8 1.1-.8h.2l.9.2c.3 0 .5 0 .7-.1.4 0 .6-.1.6-.1.5.1.7.3.7.8z"/></svg>