<svg xmlns="http://www.w3.org/2000/svg" viewBox="0 0 32 50"><path d="M15.1 2.8c-2.3 1.6-3 1.8-5.2 1.5-3.6-.5-4.9-.1-5.4 1.6-.3 1-.4 3.1-.3 6 0 1.6 0 2.5-.1 2.8-.1.2-.8.9-1.7 1.6-.8.6-1.7 1.3-1.8 1.5-.3.4-.3 1 .1 1 .1 0 7.1-1.3 15.4-2.9 16.5-3.2 15.8-3 15.6-3.8-.1-.4-.9-.9-1.6-.9-.3 0-1 0-1.5-.1-1.8-.1-2.7-.8-3.5-2.5-1.5-3.5-3.1-6.5-4-7.5-.3-.3-.7-.6-1-.7-1-.1-2.1.4-5 2.4z" fill="#030303"/><path d="M9.3 36.6V26.2c0-2.1-.7-3.2-2.2-3.2-.4 0-.7 0-.8.1-.5.1-.8.2-1.1.2-.4 0-.7-.1-.9-.4-.3-.3-.4-.6-.4-1 0-1 .6-1.5 1.8-1.5h.6l3 .3c1.1.1 2.4.2 3.7.2.7 0 2.3 0 4.8-.1l4.9-.2c.7 0 1.4-.1 2.3-.1.4-.1.8-.1 1.3-.1 1.5 0 2.3.7 2.3 2 0 .5-.1 1.3-.2 2.4-.1 1.1-.2 1.9-.2 2.4s0 1 .1 1.7.1 1.3.1 1.9c0 1.2-.5 1.8-1.5 1.8-1.1 0-1.6-.7-1.6-2 0-.4 0-1 .1-1.8s.1-1.4.1-1.8c0-1.5-.4-2.5-1.3-2.9-.9-.4-2.9-.6-6.1-.6-2.7 0-4.3.2-4.6.7-.3.4-.4 1.7-.4 3.9v3.2c0 .8.1 1.3.3 1.5s.8.3 1.8.3h1.4c1.9 0 2.8-.7 2.8-2.1 0-.3 0-.7-.1-1.3-.3-.7-.3-1.1-.3-1.4 0-1.1.5-1.6 1.5-1.6s1.5.6 1.5 1.9c0 .2 0 .5-.1 1l-.3 2.3c-.1 1-.2 1.8-.2 2.3 0 1.2.2 2.7.4 4.5.1.6.2 1.2.2 1.7 0 1.1-.5 1.7-1.5 1.7s-1.5-.6-1.5-1.8c0-.3 0-.7.1-1.3 0-.6.1-1 .1-1.3 0-.9-.2-1.5-.7-1.7-.3-.2-1-.3-2-.3h-1.3c-1 0-1.6.1-1.8.3-.2.2-.3.8-.3 1.9V43c0 1.3.1 2.2.4 2.7.3.5.9.7 1.7.7H17c1.3 0 2 .5 2 1.5 0 .4-.1.7-.4 1-.3.3-.7.4-1.1.4-.5 0-1.1-.1-2-.2-1.3-.2-2.7-.3-4.3-.3-1 0-2.1.1-3.3.3l-1.5.2h-.6c-1.3 0-1.9-.5-1.9-1.5 0-.9.4-1.4 1.3-1.4.1 0 .5 0 1.1.1.3.1.6.1.9.1.8 0 1.3-.2 1.6-.7.3-.5.5-1.3.5-2.5v-6.8z" fill="#3f50a2"/></svg>