<?xml version="1.0" encoding="utf-8"?>
<!-- Generator: Adobe Illustrator 19.2.0, SVG Export Plug-In . SVG Version: 6.00 Build 0)  -->
<svg version="1.1" id="Layer_1" xmlns="http://www.w3.org/2000/svg" xmlns:xlink="http://www.w3.org/1999/xlink" x="0px" y="0px"
	 viewBox="0 0 50 50" style="enable-background:new 0 0 50 50;" xml:space="preserve">
<style type="text/css">
	.st0{fill:#3F50A2;}
	.st1{fill:#030303;}
</style>
<path class="st0" d="M18.4,36.7V26.2c0-2.1-0.7-3.2-2.2-3.2c-0.4,0-0.7,0-0.9,0.1c-0.5,0.1-0.8,0.2-1.1,0.2c-0.4,0-0.7-0.1-0.9-0.4
	c-0.3-0.3-0.4-0.6-0.4-1c0-1,0.6-1.6,1.8-1.6h0.6l3,0.3c1.1,0.1,2.4,0.2,3.8,0.2c0.7,0,2.4,0,4.8-0.1l5-0.2c0.7,0,1.4-0.1,2.3-0.1
	c0.4-0.1,0.8-0.1,1.3-0.1c1.5,0,2.3,0.7,2.3,2c0,0.5-0.1,1.3-0.2,2.4c-0.1,1.1-0.2,1.9-0.2,2.4s0,1,0.1,1.7s0.1,1.3,0.1,1.9
	c0,1.2-0.5,1.8-1.6,1.8s-1.6-0.7-1.6-2c0-0.4,0-1,0.1-1.8s0.1-1.4,0.1-1.8c0-1.5-0.4-2.5-1.3-2.9c-0.9-0.4-2.9-0.6-6.1-0.6
	c-2.7,0-4.3,0.2-4.7,0.7c-0.3,0.4-0.4,1.7-0.4,4v3.2c0,0.8,0.1,1.3,0.3,1.5s0.8,0.3,1.8,0.3h1.4c1.9,0,2.8-0.7,2.8-2.1
	c0-0.3,0-0.7-0.1-1.3c-0.1-0.5-0.1-1-0.1-1.3c0-1.1,0.5-1.6,1.6-1.6c1,0,1.5,0.6,1.5,1.9c0,0.2,0,0.5-0.1,1L30.8,32
	c-0.1,1-0.2,1.8-0.2,2.3c0,1.2,0.2,2.7,0.5,4.5c0.1,0.6,0.2,1.2,0.2,1.7c0,1.1-0.5,1.7-1.6,1.7c-1,0-1.5-0.6-1.5-1.8
	c0-0.3,0-0.7,0.1-1.3c0-0.6,0.1-1,0.1-1.3c0-0.9-0.2-1.5-0.7-1.7c-0.3-0.2-1-0.3-2-0.3h-1.3c-1,0-1.6,0.1-1.9,0.3
	c-0.4,0.3-0.5,0.9-0.5,2v5.1c0,1.3,0.2,2.2,0.5,2.7c0.3,0.5,0.9,0.7,1.7,0.7H26c1.3,0,2,0.5,2,1.5c0,0.4-0.2,0.7-0.5,1
	s-0.7,0.4-1.1,0.4c-0.5,0-1.1-0.1-2-0.2c-1.3-0.2-2.7-0.3-4.3-0.3c-1,0-2.1,0.1-3.3,0.3l-1.5,0.2h-0.6c-1.3,0-1.9-0.5-1.9-1.6
	c0-0.9,0.4-1.4,1.3-1.4c0.1,0,0.5,0,1.1,0.1c0.3,0.1,0.6,0.1,0.9,0.1c0.8,0,1.3-0.2,1.6-0.7c0.3-0.5,0.5-1.3,0.5-2.5v-6.8L18.4,36.7
	z"/>
<path class="st1" d="M24.1,2.8c-2.3,1.6-3,1.8-5.2,1.5c-3.6-0.5-4.9-0.1-5.4,1.6c-0.3,1-0.4,3.1-0.3,6c0,1.6,0,2.5-0.1,2.8
	c-0.1,0.2-0.8,0.9-1.7,1.6c-0.8,0.6-1.7,1.3-1.8,1.5c-0.3,0.4-0.3,1,0.1,1c0.1,0,7.1-1.3,15.4-2.9c16.5-3.2,15.8-3,15.6-3.8
	c-0.1-0.4-0.9-0.9-1.6-0.9c-0.3,0-1,0-1.5-0.1c-1.8-0.1-2.7-0.8-3.5-2.5c-1.5-3.5-3.1-6.5-4-7.5c-0.3-0.3-0.7-0.6-1-0.7
	C28.1,0.3,27,0.8,24.1,2.8z"/>
<g>
</g>
<g>
</g>
<g>
</g>
<g>
</g>
<g>
</g>
<g>
</g>
</svg>
