<?xml version="1.0" encoding="utf-8" standalone="no"?>
<!DOCTYPE svg PUBLIC "-//W3C//DTD SVG 1.1//EN"
  "http://www.w3.org/Graphics/SVG/1.1/DTD/svg11.dtd">
<!-- Created with matplotlib (https://matplotlib.org/) -->
<svg height="432pt" version="1.1" viewBox="0 0 576 432" width="576pt" xmlns="http://www.w3.org/2000/svg" xmlns:xlink="http://www.w3.org/1999/xlink">
 <metadata>
  <rdf:RDF xmlns:cc="http://creativecommons.org/ns#" xmlns:dc="http://purl.org/dc/elements/1.1/" xmlns:rdf="http://www.w3.org/1999/02/22-rdf-syntax-ns#">
   <cc:Work>
    <dc:type rdf:resource="http://purl.org/dc/dcmitype/StillImage"/>
    <dc:date>2021-01-26T12:16:21.188174</dc:date>
    <dc:format>image/svg+xml</dc:format>
    <dc:creator>
     <cc:Agent>
      <dc:title>Matplotlib v3.3.3, https://matplotlib.org/</dc:title>
     </cc:Agent>
    </dc:creator>
   </cc:Work>
  </rdf:RDF>
 </metadata>
 <defs>
  <style type="text/css">*{stroke-linecap:butt;stroke-linejoin:round;}</style>
 </defs>
 <g id="figure_1">
  <g id="patch_1">
   <path d="M 0 432 
L 576 432 
L 576 0 
L 0 0 
z
" style="fill:#ffffff;"/>
  </g>
  <g id="axes_1">
   <g id="patch_2">
    <path d="M 72 384.48 
L 518.4 384.48 
L 518.4 51.84 
L 72 51.84 
z
" style="fill:#ffffff;"/>
   </g>
   <g id="matplotlib.axis_1">
    <g id="xtick_1">
     <g id="line2d_1">
      <defs>
       <path d="M 0 0 
L 0 3.5 
" id="m45745a917f" style="stroke:#000000;stroke-width:0.8;"/>
      </defs>
      <g>
       <use style="stroke:#000000;stroke-width:0.8;" x="92.290909" xlink:href="#m45745a917f" y="384.48"/>
      </g>
     </g>
     <g id="text_1">
      <!-- −2.0 -->
      <g transform="translate(80.149503 399.078438)scale(0.1 -0.1)">
       <defs>
        <path d="M 10.59375 35.5 
L 73.1875 35.5 
L 73.1875 27.203125 
L 10.59375 27.203125 
z
" id="DejaVuSans-8722"/>
        <path d="M 19.1875 8.296875 
L 53.609375 8.296875 
L 53.609375 0 
L 7.328125 0 
L 7.328125 8.296875 
Q 12.9375 14.109375 22.625 23.890625 
Q 32.328125 33.6875 34.8125 36.53125 
Q 39.546875 41.84375 41.421875 45.53125 
Q 43.3125 49.21875 43.3125 52.78125 
Q 43.3125 58.59375 39.234375 62.25 
Q 35.15625 65.921875 28.609375 65.921875 
Q 23.96875 65.921875 18.8125 64.3125 
Q 13.671875 62.703125 7.8125 59.421875 
L 7.8125 69.390625 
Q 13.765625 71.78125 18.9375 73 
Q 24.125 74.21875 28.421875 74.21875 
Q 39.75 74.21875 46.484375 68.546875 
Q 53.21875 62.890625 53.21875 53.421875 
Q 53.21875 48.921875 51.53125 44.890625 
Q 49.859375 40.875 45.40625 35.40625 
Q 44.1875 33.984375 37.640625 27.21875 
Q 31.109375 20.453125 19.1875 8.296875 
z
" id="DejaVuSans-50"/>
        <path d="M 10.6875 12.40625 
L 21 12.40625 
L 21 0 
L 10.6875 0 
z
" id="DejaVuSans-46"/>
        <path d="M 31.78125 66.40625 
Q 24.171875 66.40625 20.328125 58.90625 
Q 16.5 51.421875 16.5 36.375 
Q 16.5 21.390625 20.328125 13.890625 
Q 24.171875 6.390625 31.78125 6.390625 
Q 39.453125 6.390625 43.28125 13.890625 
Q 47.125 21.390625 47.125 36.375 
Q 47.125 51.421875 43.28125 58.90625 
Q 39.453125 66.40625 31.78125 66.40625 
z
M 31.78125 74.21875 
Q 44.046875 74.21875 50.515625 64.515625 
Q 56.984375 54.828125 56.984375 36.375 
Q 56.984375 17.96875 50.515625 8.265625 
Q 44.046875 -1.421875 31.78125 -1.421875 
Q 19.53125 -1.421875 13.0625 8.265625 
Q 6.59375 17.96875 6.59375 36.375 
Q 6.59375 54.828125 13.0625 64.515625 
Q 19.53125 74.21875 31.78125 74.21875 
z
" id="DejaVuSans-48"/>
       </defs>
       <use xlink:href="#DejaVuSans-8722"/>
       <use x="83.789062" xlink:href="#DejaVuSans-50"/>
       <use x="147.412109" xlink:href="#DejaVuSans-46"/>
       <use x="179.199219" xlink:href="#DejaVuSans-48"/>
      </g>
     </g>
    </g>
    <g id="xtick_2">
     <g id="line2d_2">
      <g>
       <use style="stroke:#000000;stroke-width:0.8;" x="143.018182" xlink:href="#m45745a917f" y="384.48"/>
      </g>
     </g>
     <g id="text_2">
      <!-- −1.5 -->
      <g transform="translate(130.876776 399.078438)scale(0.1 -0.1)">
       <defs>
        <path d="M 12.40625 8.296875 
L 28.515625 8.296875 
L 28.515625 63.921875 
L 10.984375 60.40625 
L 10.984375 69.390625 
L 28.421875 72.90625 
L 38.28125 72.90625 
L 38.28125 8.296875 
L 54.390625 8.296875 
L 54.390625 0 
L 12.40625 0 
z
" id="DejaVuSans-49"/>
        <path d="M 10.796875 72.90625 
L 49.515625 72.90625 
L 49.515625 64.59375 
L 19.828125 64.59375 
L 19.828125 46.734375 
Q 21.96875 47.46875 24.109375 47.828125 
Q 26.265625 48.1875 28.421875 48.1875 
Q 40.625 48.1875 47.75 41.5 
Q 54.890625 34.8125 54.890625 23.390625 
Q 54.890625 11.625 47.5625 5.09375 
Q 40.234375 -1.421875 26.90625 -1.421875 
Q 22.3125 -1.421875 17.546875 -0.640625 
Q 12.796875 0.140625 7.71875 1.703125 
L 7.71875 11.625 
Q 12.109375 9.234375 16.796875 8.0625 
Q 21.484375 6.890625 26.703125 6.890625 
Q 35.15625 6.890625 40.078125 11.328125 
Q 45.015625 15.765625 45.015625 23.390625 
Q 45.015625 31 40.078125 35.4375 
Q 35.15625 39.890625 26.703125 39.890625 
Q 22.75 39.890625 18.8125 39.015625 
Q 14.890625 38.140625 10.796875 36.28125 
z
" id="DejaVuSans-53"/>
       </defs>
       <use xlink:href="#DejaVuSans-8722"/>
       <use x="83.789062" xlink:href="#DejaVuSans-49"/>
       <use x="147.412109" xlink:href="#DejaVuSans-46"/>
       <use x="179.199219" xlink:href="#DejaVuSans-53"/>
      </g>
     </g>
    </g>
    <g id="xtick_3">
     <g id="line2d_3">
      <g>
       <use style="stroke:#000000;stroke-width:0.8;" x="193.745455" xlink:href="#m45745a917f" y="384.48"/>
      </g>
     </g>
     <g id="text_3">
      <!-- −1.0 -->
      <g transform="translate(181.604048 399.078438)scale(0.1 -0.1)">
       <use xlink:href="#DejaVuSans-8722"/>
       <use x="83.789062" xlink:href="#DejaVuSans-49"/>
       <use x="147.412109" xlink:href="#DejaVuSans-46"/>
       <use x="179.199219" xlink:href="#DejaVuSans-48"/>
      </g>
     </g>
    </g>
    <g id="xtick_4">
     <g id="line2d_4">
      <g>
       <use style="stroke:#000000;stroke-width:0.8;" x="244.472727" xlink:href="#m45745a917f" y="384.48"/>
      </g>
     </g>
     <g id="text_4">
      <!-- −0.5 -->
      <g transform="translate(232.331321 399.078438)scale(0.1 -0.1)">
       <use xlink:href="#DejaVuSans-8722"/>
       <use x="83.789062" xlink:href="#DejaVuSans-48"/>
       <use x="147.412109" xlink:href="#DejaVuSans-46"/>
       <use x="179.199219" xlink:href="#DejaVuSans-53"/>
      </g>
     </g>
    </g>
    <g id="xtick_5">
     <g id="line2d_5">
      <g>
       <use style="stroke:#000000;stroke-width:0.8;" x="295.2" xlink:href="#m45745a917f" y="384.48"/>
      </g>
     </g>
     <g id="text_5">
      <!-- 0.0 -->
      <g transform="translate(287.248437 399.078438)scale(0.1 -0.1)">
       <use xlink:href="#DejaVuSans-48"/>
       <use x="63.623047" xlink:href="#DejaVuSans-46"/>
       <use x="95.410156" xlink:href="#DejaVuSans-48"/>
      </g>
     </g>
    </g>
    <g id="xtick_6">
     <g id="line2d_6">
      <g>
       <use style="stroke:#000000;stroke-width:0.8;" x="345.927273" xlink:href="#m45745a917f" y="384.48"/>
      </g>
     </g>
     <g id="text_6">
      <!-- 0.5 -->
      <g transform="translate(337.97571 399.078438)scale(0.1 -0.1)">
       <use xlink:href="#DejaVuSans-48"/>
       <use x="63.623047" xlink:href="#DejaVuSans-46"/>
       <use x="95.410156" xlink:href="#DejaVuSans-53"/>
      </g>
     </g>
    </g>
    <g id="xtick_7">
     <g id="line2d_7">
      <g>
       <use style="stroke:#000000;stroke-width:0.8;" x="396.654545" xlink:href="#m45745a917f" y="384.48"/>
      </g>
     </g>
     <g id="text_7">
      <!-- 1.0 -->
      <g transform="translate(388.702983 399.078438)scale(0.1 -0.1)">
       <use xlink:href="#DejaVuSans-49"/>
       <use x="63.623047" xlink:href="#DejaVuSans-46"/>
       <use x="95.410156" xlink:href="#DejaVuSans-48"/>
      </g>
     </g>
    </g>
    <g id="xtick_8">
     <g id="line2d_8">
      <g>
       <use style="stroke:#000000;stroke-width:0.8;" x="447.381818" xlink:href="#m45745a917f" y="384.48"/>
      </g>
     </g>
     <g id="text_8">
      <!-- 1.5 -->
      <g transform="translate(439.430256 399.078438)scale(0.1 -0.1)">
       <use xlink:href="#DejaVuSans-49"/>
       <use x="63.623047" xlink:href="#DejaVuSans-46"/>
       <use x="95.410156" xlink:href="#DejaVuSans-53"/>
      </g>
     </g>
    </g>
    <g id="xtick_9">
     <g id="line2d_9">
      <g>
       <use style="stroke:#000000;stroke-width:0.8;" x="498.109091" xlink:href="#m45745a917f" y="384.48"/>
      </g>
     </g>
     <g id="text_9">
      <!-- 2.0 -->
      <g transform="translate(490.157528 399.078438)scale(0.1 -0.1)">
       <use xlink:href="#DejaVuSans-50"/>
       <use x="63.623047" xlink:href="#DejaVuSans-46"/>
       <use x="95.410156" xlink:href="#DejaVuSans-48"/>
      </g>
     </g>
    </g>
   </g>
   <g id="matplotlib.axis_2">
    <g id="ytick_1">
     <g id="line2d_10">
      <defs>
       <path d="M 0 0 
L -3.5 0 
" id="m8a5f73c3f0" style="stroke:#000000;stroke-width:0.8;"/>
      </defs>
      <g>
       <use style="stroke:#000000;stroke-width:0.8;" x="72" xlink:href="#m8a5f73c3f0" y="365.078603"/>
      </g>
     </g>
     <g id="text_10">
      <!-- −0.2 -->
      <g transform="translate(40.717187 368.877822)scale(0.1 -0.1)">
       <use xlink:href="#DejaVuSans-8722"/>
       <use x="83.789062" xlink:href="#DejaVuSans-48"/>
       <use x="147.412109" xlink:href="#DejaVuSans-46"/>
       <use x="179.199219" xlink:href="#DejaVuSans-50"/>
      </g>
     </g>
    </g>
    <g id="ytick_2">
     <g id="line2d_11">
      <g>
       <use style="stroke:#000000;stroke-width:0.8;" x="72" xlink:href="#m8a5f73c3f0" y="315.391075"/>
      </g>
     </g>
     <g id="text_11">
      <!-- 0.0 -->
      <g transform="translate(49.096875 319.190294)scale(0.1 -0.1)">
       <use xlink:href="#DejaVuSans-48"/>
       <use x="63.623047" xlink:href="#DejaVuSans-46"/>
       <use x="95.410156" xlink:href="#DejaVuSans-48"/>
      </g>
     </g>
    </g>
    <g id="ytick_3">
     <g id="line2d_12">
      <g>
       <use style="stroke:#000000;stroke-width:0.8;" x="72" xlink:href="#m8a5f73c3f0" y="265.703547"/>
      </g>
     </g>
     <g id="text_12">
      <!-- 0.2 -->
      <g transform="translate(49.096875 269.502766)scale(0.1 -0.1)">
       <use xlink:href="#DejaVuSans-48"/>
       <use x="63.623047" xlink:href="#DejaVuSans-46"/>
       <use x="95.410156" xlink:href="#DejaVuSans-50"/>
      </g>
     </g>
    </g>
    <g id="ytick_4">
     <g id="line2d_13">
      <g>
       <use style="stroke:#000000;stroke-width:0.8;" x="72" xlink:href="#m8a5f73c3f0" y="216.016019"/>
      </g>
     </g>
     <g id="text_13">
      <!-- 0.4 -->
      <g transform="translate(49.096875 219.815238)scale(0.1 -0.1)">
       <defs>
        <path d="M 37.796875 64.3125 
L 12.890625 25.390625 
L 37.796875 25.390625 
z
M 35.203125 72.90625 
L 47.609375 72.90625 
L 47.609375 25.390625 
L 58.015625 25.390625 
L 58.015625 17.1875 
L 47.609375 17.1875 
L 47.609375 0 
L 37.796875 0 
L 37.796875 17.1875 
L 4.890625 17.1875 
L 4.890625 26.703125 
z
" id="DejaVuSans-52"/>
       </defs>
       <use xlink:href="#DejaVuSans-48"/>
       <use x="63.623047" xlink:href="#DejaVuSans-46"/>
       <use x="95.410156" xlink:href="#DejaVuSans-52"/>
      </g>
     </g>
    </g>
    <g id="ytick_5">
     <g id="line2d_14">
      <g>
       <use style="stroke:#000000;stroke-width:0.8;" x="72" xlink:href="#m8a5f73c3f0" y="166.328491"/>
      </g>
     </g>
     <g id="text_14">
      <!-- 0.6 -->
      <g transform="translate(49.096875 170.12771)scale(0.1 -0.1)">
       <defs>
        <path d="M 33.015625 40.375 
Q 26.375 40.375 22.484375 35.828125 
Q 18.609375 31.296875 18.609375 23.390625 
Q 18.609375 15.53125 22.484375 10.953125 
Q 26.375 6.390625 33.015625 6.390625 
Q 39.65625 6.390625 43.53125 10.953125 
Q 47.40625 15.53125 47.40625 23.390625 
Q 47.40625 31.296875 43.53125 35.828125 
Q 39.65625 40.375 33.015625 40.375 
z
M 52.59375 71.296875 
L 52.59375 62.3125 
Q 48.875 64.0625 45.09375 64.984375 
Q 41.3125 65.921875 37.59375 65.921875 
Q 27.828125 65.921875 22.671875 59.328125 
Q 17.53125 52.734375 16.796875 39.40625 
Q 19.671875 43.65625 24.015625 45.921875 
Q 28.375 48.1875 33.59375 48.1875 
Q 44.578125 48.1875 50.953125 41.515625 
Q 57.328125 34.859375 57.328125 23.390625 
Q 57.328125 12.15625 50.6875 5.359375 
Q 44.046875 -1.421875 33.015625 -1.421875 
Q 20.359375 -1.421875 13.671875 8.265625 
Q 6.984375 17.96875 6.984375 36.375 
Q 6.984375 53.65625 15.1875 63.9375 
Q 23.390625 74.21875 37.203125 74.21875 
Q 40.921875 74.21875 44.703125 73.484375 
Q 48.484375 72.75 52.59375 71.296875 
z
" id="DejaVuSans-54"/>
       </defs>
       <use xlink:href="#DejaVuSans-48"/>
       <use x="63.623047" xlink:href="#DejaVuSans-46"/>
       <use x="95.410156" xlink:href="#DejaVuSans-54"/>
      </g>
     </g>
    </g>
    <g id="ytick_6">
     <g id="line2d_15">
      <g>
       <use style="stroke:#000000;stroke-width:0.8;" x="72" xlink:href="#m8a5f73c3f0" y="116.640963"/>
      </g>
     </g>
     <g id="text_15">
      <!-- 0.8 -->
      <g transform="translate(49.096875 120.440182)scale(0.1 -0.1)">
       <defs>
        <path d="M 31.78125 34.625 
Q 24.75 34.625 20.71875 30.859375 
Q 16.703125 27.09375 16.703125 20.515625 
Q 16.703125 13.921875 20.71875 10.15625 
Q 24.75 6.390625 31.78125 6.390625 
Q 38.8125 6.390625 42.859375 10.171875 
Q 46.921875 13.96875 46.921875 20.515625 
Q 46.921875 27.09375 42.890625 30.859375 
Q 38.875 34.625 31.78125 34.625 
z
M 21.921875 38.8125 
Q 15.578125 40.375 12.03125 44.71875 
Q 8.5 49.078125 8.5 55.328125 
Q 8.5 64.0625 14.71875 69.140625 
Q 20.953125 74.21875 31.78125 74.21875 
Q 42.671875 74.21875 48.875 69.140625 
Q 55.078125 64.0625 55.078125 55.328125 
Q 55.078125 49.078125 51.53125 44.71875 
Q 48 40.375 41.703125 38.8125 
Q 48.828125 37.15625 52.796875 32.3125 
Q 56.78125 27.484375 56.78125 20.515625 
Q 56.78125 9.90625 50.3125 4.234375 
Q 43.84375 -1.421875 31.78125 -1.421875 
Q 19.734375 -1.421875 13.25 4.234375 
Q 6.78125 9.90625 6.78125 20.515625 
Q 6.78125 27.484375 10.78125 32.3125 
Q 14.796875 37.15625 21.921875 38.8125 
z
M 18.3125 54.390625 
Q 18.3125 48.734375 21.84375 45.5625 
Q 25.390625 42.390625 31.78125 42.390625 
Q 38.140625 42.390625 41.71875 45.5625 
Q 45.3125 48.734375 45.3125 54.390625 
Q 45.3125 60.0625 41.71875 63.234375 
Q 38.140625 66.40625 31.78125 66.40625 
Q 25.390625 66.40625 21.84375 63.234375 
Q 18.3125 60.0625 18.3125 54.390625 
z
" id="DejaVuSans-56"/>
       </defs>
       <use xlink:href="#DejaVuSans-48"/>
       <use x="63.623047" xlink:href="#DejaVuSans-46"/>
       <use x="95.410156" xlink:href="#DejaVuSans-56"/>
      </g>
     </g>
    </g>
    <g id="ytick_7">
     <g id="line2d_16">
      <g>
       <use style="stroke:#000000;stroke-width:0.8;" x="72" xlink:href="#m8a5f73c3f0" y="66.953435"/>
      </g>
     </g>
     <g id="text_16">
      <!-- 1.0 -->
      <g transform="translate(49.096875 70.752654)scale(0.1 -0.1)">
       <use xlink:href="#DejaVuSans-49"/>
       <use x="63.623047" xlink:href="#DejaVuSans-46"/>
       <use x="95.410156" xlink:href="#DejaVuSans-48"/>
      </g>
     </g>
    </g>
   </g>
   <g id="line2d_17">
    <path clip-path="url(#p65b6be5a70)" d="M 92.290909 315.391075 
L 97.983749 322.525386 
L 115.875533 345.237401 
L 119.941847 349.970933 
L 124.008162 354.368801 
L 127.261213 357.589911 
L 130.514265 360.501994 
L 133.767316 363.064869 
L 136.207105 364.734536 
L 138.646894 366.170355 
L 141.086682 367.357353 
L 143.526471 368.281304 
L 145.96626 368.928794 
L 148.406048 369.287299 
L 150.845837 369.345248 
L 153.285626 369.092091 
L 155.725414 368.518354 
L 158.165203 367.6157 
L 160.604992 366.376981 
L 163.04478 364.79628 
L 165.484569 362.86896 
L 167.924358 360.591696 
L 170.364146 357.96251 
L 172.803935 354.980795 
L 175.243724 351.647337 
L 177.683512 347.96433 
L 180.123301 343.935384 
L 182.56309 339.565526 
L 185.816141 333.220082 
L 189.069193 326.299347 
L 192.322244 318.826847 
L 195.575296 310.830376 
L 199.64161 300.146967 
L 203.707925 288.766022 
L 207.774239 276.767567 
L 212.653817 261.679193 
L 218.346657 243.336433 
L 226.479286 216.300578 
L 238.678229 175.72389 
L 244.371069 157.547864 
L 249.250647 142.692419 
L 253.316961 130.971741 
L 257.383276 119.964527 
L 260.636327 111.740779 
L 263.889379 104.087413 
L 267.14243 97.050024 
L 269.582219 92.201686 
L 272.022008 87.739967 
L 274.461796 83.679972 
L 276.901585 80.035476 
L 279.341374 76.818865 
L 281.781162 74.041092 
L 284.220951 71.711629 
L 285.847477 70.411706 
L 287.474003 69.316573 
L 289.100528 68.427894 
L 290.727054 67.74702 
L 292.35358 67.274988 
L 293.980106 67.012515 
L 295.606631 66.96 
L 297.233157 67.117524 
L 298.859683 67.484847 
L 300.486209 68.061409 
L 302.112735 68.846335 
L 303.73926 69.83843 
L 305.365786 71.036185 
L 306.992312 72.437782 
L 309.432101 74.917641 
L 311.871889 77.842819 
L 314.311678 81.203348 
L 316.751467 84.98779 
L 319.191255 89.18329 
L 321.631044 93.775624 
L 324.070833 98.749258 
L 327.323884 105.94473 
L 330.576936 113.745096 
L 333.829987 122.103935 
L 337.896302 133.262151 
L 341.962616 145.112833 
L 346.842193 160.095159 
L 352.535034 178.377487 
L 360.667663 205.387343 
L 373.679869 248.643502 
L 379.372709 266.783288 
L 384.252286 281.635574 
L 388.318601 293.397177 
L 392.384915 304.508221 
L 396.45123 314.892208 
L 399.704281 322.630429 
L 402.957333 329.830257 
L 406.210384 336.466016 
L 409.463436 342.516355 
L 411.903225 346.659567 
L 414.343013 350.458358 
L 416.782802 353.908646 
L 419.222591 357.007765 
L 421.662379 359.754461 
L 424.102168 362.14888 
L 426.541957 364.192545 
L 428.981745 365.888334 
L 431.421534 367.240452 
L 433.861323 368.254394 
L 436.301111 368.936901 
L 438.7409 369.295921 
L 441.180689 369.340553 
L 443.620477 369.080997 
L 446.060266 368.528489 
L 448.500055 367.695244 
L 450.939843 366.594386 
L 453.379632 365.23988 
L 455.819421 363.646455 
L 458.259209 361.829538 
L 461.512261 359.087124 
L 464.765312 356.015423 
L 468.018364 352.655248 
L 472.084678 348.113136 
L 476.964256 342.27088 
L 483.470359 334.053271 
L 498.109091 315.391075 
L 498.109091 315.391075 
" style="fill:none;stroke:#1f77b4;stroke-linecap:square;stroke-width:1.5;"/>
   </g>
   <g id="line2d_18">
    <path clip-path="url(#p65b6be5a70)" d="M 92.290909 315.391075 
L 101.236801 326.272161 
L 104.489852 329.813434 
L 106.929641 332.16855 
L 109.36943 334.198172 
L 111.809218 335.847531 
L 113.435744 336.711965 
L 115.06227 337.373896 
L 116.688796 337.822988 
L 118.315322 338.050823 
L 119.941847 338.05102 
L 121.568373 337.819332 
L 123.194899 337.353725 
L 124.821425 336.654434 
L 126.44795 335.724009 
L 128.074476 334.567322 
L 129.701002 333.191571 
L 132.140791 330.738582 
L 134.580579 327.85603 
L 137.020368 324.596132 
L 140.27342 319.771363 
L 144.339734 313.217164 
L 152.472363 299.859007 
L 155.725414 295.021525 
L 158.165203 291.784184 
L 160.604992 288.977168 
L 162.231518 287.384251 
L 163.858043 286.039342 
L 165.484569 284.962018 
L 167.111095 284.169753 
L 168.737621 283.677716 
L 170.364146 283.498571 
L 171.990672 283.642304 
L 173.617198 284.116072 
L 175.243724 284.924068 
L 176.87025 286.067411 
L 178.496775 287.544063 
L 180.123301 289.348775 
L 181.749827 291.473048 
L 183.376353 293.905136 
L 185.816141 298.096807 
L 188.25593 302.882815 
L 190.695719 308.183978 
L 193.94877 315.889933 
L 198.015085 326.178953 
L 204.521188 342.770838 
L 207.774239 350.427197 
L 210.214028 355.610328 
L 212.653817 360.15627 
L 214.280343 362.764944 
L 215.906868 364.990492 
L 217.533394 366.795864 
L 219.15992 368.146159 
L 220.786446 369.008938 
L 221.599709 369.24812 
L 222.412971 369.354527 
L 223.226234 369.32493 
L 224.039497 369.156304 
L 224.85276 368.845843 
L 225.666023 368.390961 
L 226.479286 367.789303 
L 228.105812 366.137421 
L 229.732337 363.876186 
L 231.358863 360.995642 
L 232.985389 357.490034 
L 234.611915 353.35793 
L 236.238441 348.602304 
L 237.864966 343.230592 
L 239.491492 337.254714 
L 241.931281 327.195138 
L 244.371069 315.887947 
L 246.810858 303.428642 
L 249.250647 289.933292 
L 252.503698 270.564071 
L 256.570013 244.667483 
L 263.076116 201.299989 
L 268.768956 163.949505 
L 272.022008 143.899648 
L 275.275059 125.372468 
L 277.714848 112.738526 
L 280.154637 101.373866 
L 281.781162 94.578522 
L 283.407688 88.456081 
L 285.034214 83.04335 
L 286.66074 78.372966 
L 288.287265 74.473159 
L 289.913791 71.367552 
L 290.727054 70.118654 
L 291.540317 69.07499 
L 292.35358 68.238148 
L 293.166843 67.6094 
L 293.980106 67.189702 
L 294.793369 66.979694 
L 295.606631 66.979694 
L 296.419894 67.189702 
L 297.233157 67.6094 
L 298.04642 68.238148 
L 298.859683 69.07499 
L 299.672946 70.118654 
L 301.299472 72.819789 
L 302.925997 76.325153 
L 304.552523 80.613494 
L 306.179049 85.658861 
L 307.805575 91.430793 
L 309.432101 97.894537 
L 311.871889 108.801403 
L 314.311678 121.030203 
L 316.751467 134.417803 
L 320.004518 153.762618 
L 324.070833 179.708637 
L 332.203461 233.950283 
L 337.083039 265.513823 
L 340.33609 285.227458 
L 343.589142 303.428642 
L 346.028931 315.887947 
L 348.468719 327.195138 
L 350.908508 337.254714 
L 352.535034 343.230592 
L 354.161559 348.602304 
L 355.788085 353.35793 
L 357.414611 357.490034 
L 359.041137 360.995642 
L 360.667663 363.876186 
L 362.294188 366.137421 
L 363.920714 367.789303 
L 364.733977 368.390961 
L 365.54724 368.845843 
L 366.360503 369.156304 
L 367.173766 369.32493 
L 367.987029 369.354527 
L 368.800291 369.24812 
L 369.613554 369.008938 
L 370.426817 368.640411 
L 372.053343 367.529985 
L 373.679869 365.947936 
L 375.306395 363.927971 
L 376.93292 361.506107 
L 378.559446 358.720344 
L 380.999235 353.946483 
L 383.439024 348.582329 
L 386.692075 340.759218 
L 391.571652 328.278991 
L 396.45123 315.889933 
L 399.704281 308.183978 
L 402.14407 302.882815 
L 404.583859 298.096807 
L 407.023647 293.905136 
L 408.650173 291.473048 
L 410.276699 289.348775 
L 411.903225 287.544063 
L 413.52975 286.067411 
L 415.156276 284.924068 
L 416.782802 284.116072 
L 418.409328 283.642304 
L 420.035854 283.498571 
L 421.662379 283.677716 
L 423.288905 284.169753 
L 424.915431 284.962018 
L 426.541957 286.039342 
L 428.168482 287.384251 
L 429.795008 288.977168 
L 432.234797 291.784184 
L 434.674586 295.021525 
L 437.114374 298.603742 
L 440.367426 303.760747 
L 451.753106 322.243548 
L 454.192895 325.721049 
L 456.632684 328.861601 
L 459.072472 331.606249 
L 461.512261 333.906289 
L 463.138787 335.173552 
L 464.765312 336.217863 
L 466.391838 337.033185 
L 468.018364 337.615807 
L 469.64489 337.964342 
L 471.271416 338.079693 
L 472.897941 337.96501 
L 474.524467 337.62562 
L 476.150993 337.068933 
L 477.777519 336.304343 
L 479.404044 335.3431 
L 481.843833 333.561311 
L 484.283622 331.416794 
L 486.72341 328.966382 
L 489.976462 325.331213 
L 494.856039 319.411612 
L 498.109091 315.391075 
L 498.109091 315.391075 
" style="fill:none;stroke:#ff7f0e;stroke-linecap:square;stroke-width:1.5;"/>
   </g>
   <g id="line2d_19">
    <path clip-path="url(#p65b6be5a70)" d="M 92.290909 315.391075 
L 97.983749 322.232835 
L 100.423538 324.805253 
L 102.050064 326.29349 
L 103.67659 327.556458 
L 105.303115 328.56147 
L 106.929641 329.281135 
L 108.556167 329.694067 
L 110.182693 329.785465 
L 111.809218 329.547566 
L 113.435744 328.979932 
L 115.06227 328.089596 
L 116.688796 326.891034 
L 118.315322 325.405964 
L 119.941847 323.662999 
L 122.381636 320.643093 
L 125.634688 316.085919 
L 132.140791 306.674544 
L 134.580579 303.599082 
L 136.207105 301.826672 
L 137.833631 300.329916 
L 139.460157 299.148684 
L 141.086682 298.316547 
L 142.713208 297.859892 
L 144.339734 297.797187 
L 145.96626 298.138403 
L 147.592786 298.884616 
L 149.219311 300.027787 
L 150.845837 301.550754 
L 152.472363 303.427411 
L 154.098889 305.623098 
L 156.538677 309.419548 
L 158.978466 313.662903 
L 167.111095 328.313164 
L 169.550884 331.983922 
L 171.177409 334.042849 
L 172.803935 335.725824 
L 174.430461 336.984515 
L 176.056987 337.778798 
L 176.87025 337.991764 
L 177.683512 338.077849 
L 178.496775 338.034804 
L 179.310038 337.861066 
L 180.123301 337.555775 
L 180.936564 337.118789 
L 182.56309 335.852808 
L 184.189616 334.076627 
L 185.816141 331.815495 
L 187.442667 329.106185 
L 189.069193 325.996508 
L 191.508982 320.711068 
L 194.762033 312.88026 
L 200.454873 298.915033 
L 202.894662 293.625694 
L 204.521188 290.557595 
L 206.147714 287.953645 
L 207.774239 285.889664 
L 208.587502 285.081431 
L 209.400765 284.432432 
L 210.214028 283.94932 
L 211.027291 283.63798 
L 211.840554 283.503485 
L 212.653817 283.550049 
L 213.46708 283.781 
L 214.280343 284.198741 
L 215.093605 284.804722 
L 215.906868 285.599418 
L 216.720131 286.582307 
L 218.346657 289.105504 
L 219.973183 292.349743 
L 221.599709 296.274029 
L 223.226234 300.821156 
L 224.85276 305.918242 
L 227.292549 314.399413 
L 230.5456 326.70343 
L 235.425178 345.237401 
L 237.864966 353.520063 
L 239.491492 358.348495 
L 241.118018 362.459031 
L 242.744544 365.718671 
L 243.557807 366.990228 
L 244.371069 368.003393 
L 245.184332 368.744474 
L 245.997595 369.200641 
L 246.810858 369.36 
L 247.624121 369.211652 
L 248.437384 368.745758 
L 249.250647 367.953597 
L 250.06391 366.827619 
L 250.877173 365.361491 
L 251.690435 363.550146 
L 252.503698 361.389817 
L 254.130224 356.01385 
L 255.75675 349.230645 
L 257.383276 341.059656 
L 259.009801 331.542987 
L 260.636327 320.745252 
L 262.262853 308.753041 
L 264.702642 288.766022 
L 267.14243 266.783288 
L 270.395482 235.297765 
L 278.528111 155.019455 
L 280.967899 133.262151 
L 283.407688 113.745096 
L 285.034214 102.268611 
L 286.66074 92.201686 
L 288.287265 83.679972 
L 289.913791 76.818865 
L 290.727054 74.041092 
L 291.540317 71.711629 
L 292.35358 69.83843 
L 293.166843 68.427894 
L 293.980106 67.484847 
L 294.793369 67.012515 
L 295.606631 67.012515 
L 296.419894 67.484847 
L 297.233157 68.427894 
L 298.04642 69.83843 
L 298.859683 71.711629 
L 299.672946 74.041092 
L 300.486209 76.818865 
L 302.112735 83.679972 
L 303.73926 92.201686 
L 305.365786 102.268611 
L 306.992312 113.745096 
L 308.618838 126.477422 
L 311.058626 147.556635 
L 314.311678 178.377487 
L 324.884095 281.635574 
L 327.323884 302.341858 
L 329.763673 320.745252 
L 331.390199 331.542987 
L 333.016724 341.059656 
L 334.64325 349.230645 
L 336.269776 356.01385 
L 337.896302 361.389817 
L 338.709565 363.550146 
L 339.522827 365.361491 
L 340.33609 366.827619 
L 341.149353 367.953597 
L 341.962616 368.745758 
L 342.775879 369.211652 
L 343.589142 369.36 
L 344.402405 369.200641 
L 345.215668 368.744474 
L 346.028931 368.003393 
L 346.842193 366.990228 
L 347.655456 365.718671 
L 349.281982 362.459031 
L 350.908508 358.348495 
L 352.535034 353.520063 
L 354.974822 345.237401 
L 358.227874 333.006579 
L 363.107451 314.399413 
L 365.54724 305.918242 
L 367.173766 300.821156 
L 368.800291 296.274029 
L 370.426817 292.349743 
L 372.053343 289.105504 
L 373.679869 286.582307 
L 374.493132 285.599418 
L 375.306395 284.804722 
L 376.119657 284.198741 
L 376.93292 283.781 
L 377.746183 283.550049 
L 378.559446 283.503485 
L 379.372709 283.63798 
L 380.185972 283.94932 
L 380.999235 284.432432 
L 381.812498 285.081431 
L 383.439024 286.849752 
L 385.065549 289.192672 
L 386.692075 292.038668 
L 388.318601 295.308087 
L 390.75839 300.817013 
L 394.824704 310.849879 
L 398.891018 320.711068 
L 401.330807 325.996508 
L 402.957333 329.106185 
L 404.583859 331.815495 
L 406.210384 334.076627 
L 407.83691 335.852808 
L 409.463436 337.118789 
L 410.276699 337.555775 
L 411.089962 337.861066 
L 411.903225 338.034804 
L 412.716488 338.077849 
L 413.52975 337.991764 
L 414.343013 337.778798 
L 415.156276 337.441864 
L 416.782802 336.410919 
L 418.409328 334.93453 
L 420.035854 333.057071 
L 421.662379 330.830522 
L 424.102168 326.965022 
L 427.35522 321.170076 
L 433.04806 310.793813 
L 435.487848 306.827545 
L 437.114374 304.487862 
L 438.7409 302.446843 
L 440.367426 300.743222 
L 441.993952 299.407442 
L 443.620477 298.461173 
L 445.247003 297.917026 
L 446.873529 297.778467 
L 448.500055 298.039937 
L 450.12658 298.687152 
L 451.753106 299.697602 
L 453.379632 301.041209 
L 455.006158 302.681132 
L 457.445946 305.60197 
L 459.885735 308.929558 
L 468.831627 321.697117 
L 471.271416 324.564675 
L 472.897941 326.18268 
L 474.524467 327.527652 
L 476.150993 328.57437 
L 477.777519 329.304701 
L 479.404044 329.707879 
L 481.03057 329.780612 
L 482.657096 329.527028 
L 484.283622 328.958456 
L 485.910148 328.093054 
L 487.536673 326.955291 
L 489.163199 325.575302 
L 491.602988 323.128917 
L 494.042776 320.351633 
L 498.109091 315.391075 
L 498.109091 315.391075 
" style="fill:none;stroke:#2ca02c;stroke-linecap:square;stroke-width:1.5;"/>
   </g>
   <g id="line2d_20">
    <path clip-path="url(#p65b6be5a70)" d="M 92.290909 315.391075 
L 96.357224 320.259507 
L 98.797012 322.75862 
L 100.423538 324.096856 
L 102.050064 325.102508 
L 103.67659 325.729068 
L 105.303115 325.944598 
L 106.929641 325.733263 
L 108.556167 325.096247 
L 110.182693 324.051995 
L 111.809218 322.63577 
L 113.435744 320.898522 
L 115.875533 317.835837 
L 123.194899 308.002253 
L 124.821425 306.260128 
L 126.44795 304.857336 
L 128.074476 303.857487 
L 129.701002 303.309114 
L 130.514265 303.214711 
L 131.327528 303.243434 
L 132.140791 303.396215 
L 132.954054 303.672747 
L 134.580579 304.589573 
L 136.207105 305.96656 
L 137.833631 307.757182 
L 139.460157 309.89723 
L 141.899945 313.584653 
L 147.592786 322.685154 
L 149.219311 324.936996 
L 150.845837 326.849091 
L 152.472363 328.335996 
L 154.098889 329.327511 
L 154.912152 329.620517 
L 155.725414 329.771834 
L 156.538677 329.778273 
L 157.35194 329.638063 
L 158.165203 329.35089 
L 158.978466 328.917912 
L 159.791729 328.341768 
L 161.418255 326.77787 
L 163.04478 324.709201 
L 164.671306 322.207351 
L 167.111095 317.845571 
L 173.617198 305.427442 
L 175.243724 302.829868 
L 176.87025 300.675981 
L 178.496775 299.065592 
L 179.310038 298.49028 
L 180.123301 298.079395 
L 180.936564 297.839425 
L 181.749827 297.775235 
L 182.56309 297.890006 
L 183.376353 298.18517 
L 184.189616 298.660377 
L 185.002878 299.313474 
L 185.816141 300.140497 
L 187.442667 302.291511 
L 189.069193 305.046469 
L 190.695719 308.312147 
L 193.135507 313.9078 
L 198.828348 327.645702 
L 200.454873 331.028016 
L 202.081399 333.88491 
L 203.707925 336.08199 
L 204.521188 336.896868 
L 205.334451 337.506485 
L 206.147714 337.900974 
L 206.960976 338.072416 
L 207.774239 338.014955 
L 208.587502 337.72489 
L 209.400765 337.20075 
L 210.214028 336.443346 
L 211.027291 335.455807 
L 211.840554 334.243589 
L 213.46708 331.178501 
L 215.093605 327.337358 
L 216.720131 322.843742 
L 219.15992 315.225008 
L 224.85276 296.775061 
L 226.479286 292.296096 
L 228.105812 288.556831 
L 228.919075 287.023974 
L 229.732337 285.744205 
L 230.5456 284.736594 
L 231.358863 284.018059 
L 232.172126 283.603159 
L 232.985389 283.503905 
L 233.798652 283.72959 
L 234.611915 284.286641 
L 235.425178 285.17849 
L 236.238441 286.405476 
L 237.051703 287.964762 
L 237.864966 289.850287 
L 239.491492 294.559571 
L 241.118018 300.420118 
L 242.744544 307.268477 
L 245.184332 318.921182 
L 250.877173 347.640918 
L 252.503698 354.786935 
L 254.130224 360.842259 
L 254.943487 363.35873 
L 255.75675 365.482629 
L 256.570013 367.177413 
L 257.383276 368.408767 
L 258.196539 369.144916 
L 259.009801 369.356923 
L 259.823064 369.01897 
L 260.636327 368.108617 
L 261.44959 366.607039 
L 262.262853 364.499237 
L 263.076116 361.774226 
L 263.889379 358.425189 
L 264.702642 354.449603 
L 266.329167 344.630703 
L 267.955693 332.386011 
L 269.582219 317.855327 
L 271.208745 301.247942 
L 273.648533 273.060617 
L 276.088322 242.002707 
L 283.407688 146.331866 
L 285.034214 127.58993 
L 286.66074 110.751949 
L 288.287265 96.215799 
L 289.913791 84.328139 
L 290.727054 79.469346 
L 291.540317 75.374496 
L 292.35358 72.068384 
L 293.166843 69.571061 
L 293.980106 67.897695 
L 294.793369 67.058459 
L 295.606631 67.058459 
L 296.419894 67.897695 
L 297.233157 69.571061 
L 298.04642 72.068384 
L 298.859683 75.374496 
L 299.672946 79.469346 
L 300.486209 84.328139 
L 302.112735 96.215799 
L 303.73926 110.751949 
L 305.365786 127.58993 
L 307.805575 156.281242 
L 311.058626 198.579174 
L 315.938204 262.961677 
L 318.377992 292.248952 
L 320.004518 309.795522 
L 321.631044 325.39493 
L 323.25757 338.804504 
L 324.884095 349.849335 
L 326.510621 358.425189 
L 327.323884 361.774226 
L 328.137147 364.499237 
L 328.95041 366.607039 
L 329.763673 368.108617 
L 330.576936 369.01897 
L 331.390199 369.356923 
L 332.203461 369.144916 
L 333.016724 368.408767 
L 333.829987 367.177413 
L 334.64325 365.482629 
L 335.456513 363.35873 
L 337.083039 357.971658 
L 338.709565 351.32932 
L 340.33609 343.764359 
L 343.589142 327.228314 
L 346.842193 310.999036 
L 348.468719 303.732922 
L 350.095245 297.355004 
L 351.721771 292.052742 
L 353.348297 287.964762 
L 354.161559 286.405476 
L 354.974822 285.17849 
L 355.788085 284.286641 
L 356.601348 283.72959 
L 357.414611 283.503905 
L 358.227874 283.603159 
L 359.041137 284.018059 
L 359.8544 284.736594 
L 360.667663 285.744205 
L 361.480925 287.023974 
L 363.107451 290.321773 
L 364.733977 294.455645 
L 366.360503 299.228043 
L 369.613554 309.831247 
L 372.866606 320.39943 
L 374.493132 325.163131 
L 376.119657 329.347982 
L 377.746183 332.814467 
L 379.372709 335.455807 
L 380.185972 336.443346 
L 380.999235 337.20075 
L 381.812498 337.72489 
L 382.625761 338.014955 
L 383.439024 338.072416 
L 384.252286 337.900974 
L 385.065549 337.506485 
L 385.878812 336.896868 
L 386.692075 336.08199 
L 387.505338 335.073546 
L 389.131864 332.530981 
L 390.75839 329.393447 
L 393.198178 323.88818 
L 399.704281 308.312147 
L 401.330807 305.046469 
L 402.957333 302.291511 
L 404.583859 300.140497 
L 405.397122 299.313474 
L 406.210384 298.660377 
L 407.023647 298.18517 
L 407.83691 297.890006 
L 408.650173 297.775235 
L 409.463436 297.839425 
L 410.276699 298.079395 
L 411.089962 298.49028 
L 411.903225 299.065592 
L 413.52975 300.675981 
L 415.156276 302.829868 
L 416.782802 305.427442 
L 419.222591 309.902286 
L 424.915431 320.8217 
L 426.541957 323.507164 
L 428.168482 325.80264 
L 429.795008 327.626568 
L 431.421534 328.917912 
L 432.234797 329.35089 
L 433.04806 329.638063 
L 433.861323 329.778273 
L 434.674586 329.771834 
L 435.487848 329.620517 
L 436.301111 329.327511 
L 437.114374 328.897379 
L 438.7409 327.650477 
L 440.367426 325.941168 
L 441.993952 323.847705 
L 444.43374 320.190561 
L 450.939843 309.89723 
L 452.566369 307.757182 
L 454.192895 305.96656 
L 455.819421 304.589573 
L 457.445946 303.672747 
L 458.259209 303.396215 
L 459.072472 303.243434 
L 459.885735 303.214711 
L 460.698998 303.309114 
L 461.512261 303.524487 
L 463.138787 304.303628 
L 464.765312 305.512017 
L 466.391838 307.093265 
L 468.018364 308.977245 
L 470.458153 312.191905 
L 476.150993 319.929299 
L 477.777519 321.803521 
L 479.404044 323.387545 
L 481.03057 324.623206 
L 482.657096 325.467215 
L 484.283622 325.892619 
L 485.910148 325.889593 
L 487.536673 325.465533 
L 489.163199 324.644482 
L 490.789725 323.465889 
L 492.416251 321.982796 
L 494.856039 319.330295 
L 498.109091 315.391075 
L 498.109091 315.391075 
" style="fill:none;stroke:#d62728;stroke-linecap:square;stroke-width:1.5;"/>
   </g>
   <g id="line2d_21">
    <path clip-path="url(#p65b6be5a70)" d="M 92.290909 315.391075 
L 95.543961 319.269956 
L 97.170486 320.946793 
L 98.797012 322.298022 
L 100.423538 323.232459 
L 101.236801 323.521551 
L 102.050064 323.683799 
L 102.863327 323.715559 
L 103.67659 323.615221 
L 104.489852 323.383252 
L 105.303115 323.022208 
L 106.929641 321.933384 
L 108.556167 320.409268 
L 110.182693 318.539002 
L 112.622481 315.335744 
L 115.875533 311.023158 
L 117.502059 309.158431 
L 119.128584 307.656066 
L 120.75511 306.618194 
L 121.568373 306.297989 
L 122.381636 306.119426 
L 123.194899 306.086674 
L 124.008162 306.201634 
L 124.821425 306.463891 
L 125.634688 306.870691 
L 127.261213 308.095418 
L 128.887739 309.808843 
L 130.514265 311.911744 
L 132.954054 315.515602 
L 136.207105 320.372906 
L 137.833631 322.475283 
L 139.460157 324.170003 
L 140.27342 324.827051 
L 141.086682 325.340838 
L 141.899945 325.701697 
L 142.713208 325.902279 
L 143.526471 325.937688 
L 144.339734 325.805585 
L 145.152997 325.506255 
L 145.96626 325.042629 
L 146.779523 324.420263 
L 148.406048 322.734292 
L 150.032574 320.542108 
L 151.6591 317.971609 
L 157.35194 308.360688 
L 158.978466 306.161785 
L 160.604992 304.498996 
L 161.418255 303.907171 
L 162.231518 303.491053 
L 163.04478 303.259395 
L 163.858043 303.218148 
L 164.671306 303.370332 
L 165.484569 303.715951 
L 166.297832 304.251959 
L 167.111095 304.972267 
L 168.737621 306.926619 
L 170.364146 309.472831 
L 171.990672 312.464547 
L 177.683512 323.706143 
L 179.310038 326.29349 
L 180.936564 328.256936 
L 181.749827 328.958456 
L 182.56309 329.453732 
L 183.376353 329.731927 
L 184.189616 329.785465 
L 185.002878 329.610194 
L 185.816141 329.2055 
L 186.629404 328.57437 
L 187.442667 327.723397 
L 188.25593 326.662729 
L 189.882456 323.969993 
L 191.508982 320.643093 
L 193.94877 314.892287 
L 197.201822 307.041024 
L 198.828348 303.599082 
L 200.454873 300.795625 
L 201.268136 299.697602 
L 202.081399 298.831058 
L 202.894662 298.213762 
L 203.707925 297.859892 
L 204.521188 297.779748 
L 205.334451 297.979532 
L 206.147714 298.461173 
L 206.960976 299.222227 
L 207.774239 300.255836 
L 208.587502 301.550754 
L 210.214028 304.85823 
L 211.840554 308.972202 
L 214.280343 316.139955 
L 217.533394 326.038682 
L 219.15992 330.429505 
L 220.786446 334.042849 
L 221.599709 335.473582 
L 222.412971 336.614753 
L 223.226234 337.441864 
L 224.039497 337.934743 
L 224.85276 338.07794 
L 225.666023 337.861066 
L 226.479286 337.279063 
L 227.292549 336.3324 
L 228.105812 335.027188 
L 228.919075 333.375217 
L 229.732337 331.393909 
L 231.358863 326.540245 
L 232.985389 320.711068 
L 235.425178 310.849879 
L 238.678229 297.680714 
L 240.304755 292.038668 
L 241.931281 287.570225 
L 242.744544 285.889664 
L 243.557807 284.630646 
L 244.371069 283.826187 
L 245.184332 283.503485 
L 245.997595 283.683361 
L 246.810858 284.379775 
L 247.624121 285.599418 
L 248.437384 287.341402 
L 249.250647 289.597042 
L 250.06391 292.349743 
L 251.690435 299.240427 
L 253.316961 307.724731 
L 255.75675 322.525386 
L 259.823064 348.113136 
L 261.44959 356.812007 
L 262.262853 360.501994 
L 263.076116 363.646455 
L 263.889379 366.170355 
L 264.702642 368.003393 
L 265.515905 369.080997 
L 266.329167 369.345248 
L 267.14243 368.745758 
L 267.955693 367.240452 
L 268.768956 364.79628 
L 269.582219 361.389817 
L 270.395482 357.007765 
L 271.208745 351.647337 
L 272.022008 345.316523 
L 273.648533 329.830257 
L 275.275059 310.830376 
L 276.901585 288.766022 
L 279.341374 251.278836 
L 286.66074 133.262151 
L 288.287265 111.740779 
L 289.913791 93.775624 
L 290.727054 86.341291 
L 291.540317 80.035476 
L 292.35358 74.917641 
L 293.166843 71.036185 
L 293.980106 68.427894 
L 294.793369 67.117524 
L 295.606631 67.117524 
L 296.419894 68.427894 
L 297.233157 71.036185 
L 298.04642 74.917641 
L 298.859683 80.035476 
L 299.672946 86.341291 
L 300.486209 93.775624 
L 302.112735 111.740779 
L 303.73926 133.262151 
L 305.365786 157.547864 
L 308.618838 210.843664 
L 311.871889 264.23992 
L 314.311678 300.146967 
L 315.938204 320.745252 
L 317.564729 338.034222 
L 319.191255 351.647337 
L 320.004518 357.007765 
L 320.817781 361.389817 
L 321.631044 364.79628 
L 322.444307 367.240452 
L 323.25757 368.745758 
L 324.070833 369.345248 
L 324.884095 369.080997 
L 325.697358 368.003393 
L 326.510621 366.170355 
L 327.323884 363.646455 
L 328.137147 360.501994 
L 329.763673 352.655248 
L 331.390199 343.268692 
L 337.896302 303.306101 
L 339.522827 295.574986 
L 340.33609 292.349743 
L 341.149353 289.597042 
L 341.962616 287.341402 
L 342.775879 285.599418 
L 343.589142 284.379775 
L 344.402405 283.683361 
L 345.215668 283.503485 
L 346.028931 283.826187 
L 346.842193 284.630646 
L 347.655456 285.889664 
L 348.468719 287.570225 
L 349.281982 289.634129 
L 350.908508 294.737361 
L 352.535034 300.817013 
L 358.227874 323.729277 
L 359.8544 329.106185 
L 361.480925 333.375217 
L 362.294188 335.027188 
L 363.107451 336.3324 
L 363.920714 337.279063 
L 364.733977 337.861066 
L 365.54724 338.07794 
L 366.360503 337.934743 
L 367.173766 337.441864 
L 367.987029 336.614753 
L 368.800291 335.473582 
L 369.613554 334.042849 
L 371.24008 330.429505 
L 372.866606 326.038682 
L 376.119657 316.139955 
L 378.559446 308.972202 
L 380.185972 304.85823 
L 381.812498 301.550754 
L 382.625761 300.255836 
L 383.439024 299.222227 
L 384.252286 298.461173 
L 385.065549 297.979532 
L 385.878812 297.779748 
L 386.692075 297.859892 
L 387.505338 298.213762 
L 388.318601 298.831058 
L 389.131864 299.697602 
L 389.945127 300.795625 
L 391.571652 303.599082 
L 393.198178 307.041024 
L 395.637967 312.886893 
L 398.891018 320.643093 
L 400.517544 323.969993 
L 402.14407 326.662729 
L 402.957333 327.723397 
L 403.770596 328.57437 
L 404.583859 329.2055 
L 405.397122 329.610194 
L 406.210384 329.785465 
L 407.023647 329.731927 
L 407.83691 329.453732 
L 408.650173 328.958456 
L 409.463436 328.256936 
L 410.276699 327.363056 
L 411.903225 325.067408 
L 413.52975 322.232835 
L 415.969539 317.391022 
L 419.222591 310.923511 
L 420.849116 308.134031 
L 422.475642 305.867804 
L 423.288905 304.972267 
L 424.102168 304.251959 
L 424.915431 303.715951 
L 425.728694 303.370332 
L 426.541957 303.218148 
L 427.35522 303.259395 
L 428.168482 303.491053 
L 428.981745 303.907171 
L 429.795008 304.498996 
L 431.421534 306.161785 
L 433.04806 308.360688 
L 434.674586 310.946642 
L 440.367426 320.542108 
L 441.993952 322.734292 
L 443.620477 324.420263 
L 444.43374 325.042629 
L 445.247003 325.506255 
L 446.060266 325.805585 
L 446.873529 325.937688 
L 447.686792 325.902279 
L 448.500055 325.701697 
L 449.313318 325.340838 
L 450.12658 324.827051 
L 451.753106 323.381501 
L 453.379632 321.46679 
L 455.819421 318.002015 
L 459.885735 311.911744 
L 461.512261 309.808843 
L 463.138787 308.095418 
L 464.765312 306.870691 
L 465.578575 306.463891 
L 466.391838 306.201634 
L 467.205101 306.086674 
L 468.018364 306.119426 
L 468.831627 306.297989 
L 469.64489 306.618194 
L 471.271416 307.656066 
L 472.897941 309.158431 
L 474.524467 311.023158 
L 476.964256 314.227316 
L 480.217307 318.539002 
L 481.843833 320.409268 
L 483.470359 321.933384 
L 485.096885 323.022208 
L 485.910148 323.383252 
L 486.72341 323.615221 
L 487.536673 323.715559 
L 488.349936 323.683799 
L 489.163199 323.521551 
L 489.976462 323.232459 
L 491.602988 322.298022 
L 493.229514 320.946793 
L 494.856039 319.269956 
L 497.295828 316.388184 
L 498.109091 315.391075 
L 498.109091 315.391075 
" style="fill:none;stroke:#9467bd;stroke-linecap:square;stroke-width:1.5;"/>
   </g>
   <g id="patch_3">
    <path d="M 72 384.48 
L 72 51.84 
" style="fill:none;stroke:#000000;stroke-linecap:square;stroke-linejoin:miter;stroke-width:0.8;"/>
   </g>
   <g id="patch_4">
    <path d="M 518.4 384.48 
L 518.4 51.84 
" style="fill:none;stroke:#000000;stroke-linecap:square;stroke-linejoin:miter;stroke-width:0.8;"/>
   </g>
   <g id="patch_5">
    <path d="M 72 384.48 
L 518.4 384.48 
" style="fill:none;stroke:#000000;stroke-linecap:square;stroke-linejoin:miter;stroke-width:0.8;"/>
   </g>
   <g id="patch_6">
    <path d="M 72 51.84 
L 518.4 51.84 
" style="fill:none;stroke:#000000;stroke-linecap:square;stroke-linejoin:miter;stroke-width:0.8;"/>
   </g>
  </g>
 </g>
 <defs>
  <clipPath id="p65b6be5a70">
   <rect height="332.64" width="446.4" x="72" y="51.84"/>
  </clipPath>
 </defs>
</svg>
