<?xml version="1.0" encoding="UTF-8" standalone="no"?>
<svg
   xmlns:dc="http://purl.org/dc/elements/1.1/"
   xmlns:cc="http://creativecommons.org/ns#"
   xmlns:rdf="http://www.w3.org/1999/02/22-rdf-syntax-ns#"
   xmlns:svg="http://www.w3.org/2000/svg"
   xmlns="http://www.w3.org/2000/svg"
   xmlns:sodipodi="http://sodipodi.sourceforge.net/DTD/sodipodi-0.dtd"
   xmlns:inkscape="http://www.inkscape.org/namespaces/inkscape"
   viewBox="0 -256 1850 1850"
   id="svg3037"
   version="1.1"
   inkscape:version="0.48.3.1 r9886"
   width="100%"
   height="100%"
   sodipodi:docname="copy_font_awesome.svg">
  <metadata
     id="metadata3047">
    <rdf:RDF>
      <cc:Work
         rdf:about="">
        <dc:format>image/svg+xml</dc:format>
        <dc:type
           rdf:resource="http://purl.org/dc/dcmitype/StillImage" />
      </cc:Work>
    </rdf:RDF>
  </metadata>
  <defs
     id="defs3045" />
  <sodipodi:namedview
     pagecolor="#ffffff"
     bordercolor="#666666"
     borderopacity="1"
     objecttolerance="10"
     gridtolerance="10"
     guidetolerance="10"
     inkscape:pageopacity="0"
     inkscape:pageshadow="2"
     inkscape:window-width="640"
     inkscape:window-height="480"
     id="namedview3043"
     showgrid="false"
     inkscape:zoom="0.13169643"
     inkscape:cx="896"
     inkscape:cy="896"
     inkscape:window-x="0"
     inkscape:window-y="25"
     inkscape:window-maximized="0"
     inkscape:current-layer="svg3037" />
  <g
     transform="matrix(1,0,0,-1,37.966102,1305.4576)"
     id="g3039">
    <path
       d="m 1696,1152 q 40,0 68,-28 28,-28 28,-68 V -160 q 0,-40 -28,-68 -28,-28 -68,-28 H 736 q -40,0 -68,28 -28,28 -28,68 V 128 H 96 Q 56,128 28,156 0,184 0,224 v 672 q 0,40 20,88 20,48 48,76 l 408,408 q 28,28 76,48 48,20 88,20 h 416 q 40,0 68,-28 28,-28 28,-68 v -328 q 68,40 128,40 h 416 z M 1152,939 853,640 h 299 V 939 z M 512,1323 213,1024 h 299 v 299 z m 196,-647 316,316 v 416 H 640 V 992 q 0,-40 -28,-68 -28,-28 -68,-28 H 128 V 256 h 512 v 256 q 0,40 20,88 20,48 48,76 z m 956,-804 V 1024 H 1280 V 608 q 0,-40 -28,-68 -28,-28 -68,-28 H 768 v -640 h 896 z"
       id="path3041"
       inkscape:connector-curvature="0"
       style="fill:currentColor" />
  </g>
</svg>
